<svg width="24" height="24" viewBox="0 0 24 24" fill="none" xmlns="http://www.w3.org/2000/svg"><path d="M23 3.63613L14.5006 1L12 4.50502L9.49736 1L1 3.63613L3.00376 12.4344L7.24106 12.8826L5.50433 16.8357L11.9979 23L18.4915 16.8378L16.7548 12.8847L20.9921 12.4365L22.9959 3.63823L23 3.63613ZM18.2887 9.22817L15.016 9.47853L15.7384 10.7472L14.4281 13.0551H12.9874L14.4116 16.0594L12.0021 18.3463L9.59259 16.0594L11.0167 13.053H9.57603L8.26571 10.7472L8.98814 9.47853L5.71547 9.22817L4.97234 5.9651L8.12495 4.9868L9.97347 7.74285L10.6938 6.47423H13.3145L14.0348 7.74285L15.8833 4.9868L19.0359 5.9651L18.2928 9.22817H18.2887Z" fill="white"/></svg>