<svg width="24" height="24" viewBox="0 0 24 24" fill="none" xmlns="http://www.w3.org/2000/svg"><g clip-path="url(#clip0_5513_96)"><path fill-rule="evenodd" clip-rule="evenodd" d="M24 6.85714L16.2857 10.2857L14.3914 15.9771L13.7143 8.57143L16.2857 7.71429L17.1429 5.14286H13.7143L14.5714 2.57143L12 0L9.42857 2.57143L10.2857 5.14286H6.85714L7.71429 7.71429L10.2857 8.57143L9.60857 15.9771L7.71429 10.2857L0 6.85714L1.71429 11.1429L6.85714 13.7143L1.71429 12.8571L3.42857 15.3771L7.71429 16.44L12 24L16.2857 16.44L20.5714 15.3771L22.2857 12.8571L17.1429 13.7143L22.2857 11.1429L24 6.85714Z" fill="white"/></g><defs><clipPath id="clip0_5513_96"><rect width="24" height="24" fill="white"/></clipPath></defs></svg>