<svg width="24" height="24" viewBox="0 0 24 24" fill="none" xmlns="http://www.w3.org/2000/svg"><g clip-path="url(#clip0_5513_91)"><path fill-rule="evenodd" clip-rule="evenodd" d="M21.8211 11.0769L12 24L2.17889 11.0769L8.42869 7.38462H15.5713L21.8211 11.0769ZM5.7502 11.0769L12 12.9231V20.0679L18.2498 11.0769L12 9.23077L5.7502 11.0769Z" fill="white"/><path d="M5.7502 19.3846L0 20.9081L3.07171 16.6154L5.7502 19.3846Z" fill="white"/><path d="M24 20.9081L18.2498 19.3846L20.9283 16.6154L24 20.9081Z" fill="white"/><path d="M5.7502 6.46154L2.17889 8.30769L0 4.939L5.7502 6.46154Z" fill="white"/><path d="M21.8211 8.30769L18.2498 6.46154L24 4.939L21.8211 8.30769Z" fill="white"/><path d="M13.7857 5.53846H10.2143L12 0L13.7857 5.53846Z" fill="white"/></g><defs><clipPath id="clip0_5513_91"><rect width="24" height="24" fill="white"/></clipPath></defs></svg>