<svg width="24" height="24" viewBox="0 0 24 24" fill="none" xmlns="http://www.w3.org/2000/svg"><path d="M20.1263 17.3891C20.8873 15.9041 20.8828 14.3304 19.9806 13.4138L18.0967 15.3251L14.6804 11.8587L18.0797 8.40944C20.1027 6.35556 19.3305 1.69995 19.3305 1.69995L11.9997 9.13873L4.6684 1.69995C4.6684 1.69995 3.89613 6.35556 5.92031 8.41054L9.31921 11.8587L5.9031 15.3252L4.01936 13.4138C3.11659 14.3302 3.11169 15.9034 3.87259 17.3881L1.39452 19.9043C1.1416 20.1631 1 20.5106 1 20.8724C1 21.2343 1.1416 21.5817 1.39452 21.8405H1.39342C1.91926 22.3741 2.77954 22.3741 3.30099 21.8405L5.61713 19.4907C7.31165 20.8288 9.36658 21.0641 10.4615 19.9505L8.58364 18.0451L12.0001 14.5784L15.4164 18.0443L13.5374 19.9506C14.6322 21.064 16.6869 20.8289 18.3821 19.4911L20.698 21.8405C20.8224 21.9672 20.9708 22.0679 21.1346 22.1366C21.2983 22.2053 21.4741 22.2407 21.6517 22.2407C21.8293 22.2407 22.0051 22.2053 22.1689 22.1366C22.3327 22.0679 22.4811 21.9672 22.6055 21.8405C22.8584 21.5817 23 21.2343 23 20.8724C23 20.5106 22.8584 20.1631 22.6055 19.9043L20.1263 17.3891Z" fill="white"/></svg>