<svg width="24" height="24" viewBox="0 0 24 24" fill="none" xmlns="http://www.w3.org/2000/svg"><g clip-path="url(#clip0_5513_111)"><path d="M15.3516 22.0714L13.4314 23.9916L11.5714 21.1113L8.68276 24L6.86551 22.1828L9.75419 19.2941L6.86551 17.4434L8.79408 15.5148L15.3516 22.0714Z" fill="white"/><path d="M24 12L14.9397 19.2347L11.6233 15.9174L18.8571 6.85714H24V12Z" fill="white"/><path d="M7.31166 9.5918L7.71429 12.8571L4.28571 8.57143H1.71429V11.2031L6.70312 15.18L5.64844 16.2254L5.48605 16.397L0 12V6.85714H5.14286L7.31166 9.5918Z" fill="white"/><path d="M15.6345 3.63449L15.0427 8.88867L13.0371 11.3998L13.8432 4.26897L12 2.42578L10.1568 4.26897L11.2199 13.6883L10.4054 14.7003L10.0028 14.2969L9.50558 13.7997L8.36551 3.63449L12 0L15.6345 3.63449Z" fill="white"/></g><defs><clipPath id="clip0_5513_111"><rect width="24" height="24" fill="white"/></clipPath></defs></svg>