<svg width="24" height="24" viewBox="0 0 24 24" fill="none" xmlns="http://www.w3.org/2000/svg"><path d="M2.12012 3.76659C2.31012 8.49791 5.27 15.1958 14 17.9408L13.1104 9.95544L18 16.9426L21 9.02745L20 24L6 23.9298L10 21.9335C5.97004 20.6658 1.99002 17.302 0 14.9463H3C3 14.9463 -0.709883 8.41806 2.12012 3.76659Z" fill="white"/><path d="M6.28027 0.653157C15.6147 -2.52222 22.96 6.90943 23 6.96093C22.9379 6.92509 5.32511 -3.2331 8.04004 11.9518C8.00592 11.9197 2.35745 6.60593 4.74023 1.3316C5.2002 1.07211 5.71033 0.842792 6.28027 0.653157Z" fill="white"/></svg>