<svg width="24" height="24" viewBox="0 0 24 24" fill="none" xmlns="http://www.w3.org/2000/svg"><path d="M17.1109 2.03202C19.75 2.03202 24 6.15013 24 9.58049C24 11.4676 21.8412 14.5456 18.8338 17.1707L11.9448 23L7.10327 18.7311C9.01403 18.4039 10.4882 16.8857 10.7281 14.9986C12.9214 14.7384 14.6348 12.9354 14.635 10.7214V10.2013C15.8173 10.1594 17.1455 9.8239 18.5677 9.01042L17.6942 7.55905C13.1993 10.127 10.5191 6.75564 10.5047 6.73753L14.0434 3.39903C15.0973 2.59388 16.2286 2.03205 17.1026 2.03202H17.1109Z" fill="white"/><path d="M10.4361 1C11.1558 1 11.8499 1.28576 12.364 1.78057L12.8016 2.20812L9.28806 5.52122L8.18269 6.56143L9.12572 7.75235C9.78558 8.59101 11.1135 9.62271 12.887 10.0252V10.7124C12.887 12.1801 11.6704 13.3718 10.1625 13.3719H9.03117V14.4703C9.03114 15.9379 7.81456 17.1288 6.30667 17.129C5.58705 17.129 4.89285 16.8439 4.37877 16.3492L1.16561 13.4137L0.796597 13.0525C0.291314 12.5577 8.59648e-05 11.8787 0 11.1744C0 9.79059 1.08802 8.66622 2.47598 8.54028V6.0659C2.47608 5.33636 2.77653 4.66578 3.27341 4.18779C3.77038 3.70134 4.44729 3.40722 5.20131 3.40722H7.73754C7.86621 2.05713 9.01397 1.00013 10.4361 1Z" fill="white"/></svg>