<svg width="24" height="24" viewBox="0 0 24 24" fill="none" xmlns="http://www.w3.org/2000/svg"><path d="M15.5 21.4286C15.5 22.8514 14.3275 24 12.875 24H11.125C9.6725 24 8.5 22.8514 8.5 21.4286H15.5Z" fill="white"/><path fill-rule="evenodd" clip-rule="evenodd" d="M19 3.70312C21.1436 5.74312 22.5 8.69174 22.5 11.9916C22.4999 15.5743 20.8983 18.7458 18.4309 20.7857L15.6136 17.5882L12 19.7143L8.38635 17.5882L5.56909 20.7941C3.09288 18.7541 1.50004 15.5742 1.5 12C1.5 8.70863 2.85631 5.75149 5 3.7115V6C5.00008 7.55997 6.21644 9.42857 12 9.42857C14.6161 9.42857 18.9996 8.98275 19 6.02595V3.70312ZM4.125 11.3915C4.12507 13.6199 5.44624 15.4285 7.0824 15.4286H11.125C11.125 13.8086 10.3373 12.3938 9.19983 11.9481L4.125 9.96847V11.3915ZM14.8002 11.9481C13.6627 12.3938 12.875 13.8171 12.875 15.4286H16.9176C18.5538 15.4285 19.8749 13.6199 19.875 11.3915V9.96847L14.8002 11.9481Z" fill="white"/><path d="M14.625 4.28571L17.25 1.71429V6.02595C17.2496 7.60287 12.7787 7.71429 12 7.71429C11.2212 7.71429 6.75 7.63714 6.75 6V1.71429L9.375 4.28571L11.9735 0L14.625 4.28571Z" fill="white"/></svg>