<svg width="24" height="24" viewBox="0 0 24 24" fill="none" xmlns="http://www.w3.org/2000/svg"><path d="M23.8574 14.5661L21.6347 10.8037C22.1326 10.3412 22.346 9.62071 22.1148 8.93583C21.8037 8.00191 20.799 7.50381 19.8655 7.81512L18.3275 5.20902C18.1319 4.87992 18.2385 4.45299 18.5675 4.25731C18.7275 4.15947 18.9142 4.13278 19.092 4.18615C19.2699 4.23062 19.421 4.34625 19.5188 4.50635L20.15 5.5648C20.399 5.99174 20.9413 6.12516 21.368 5.87611C21.7948 5.62706 21.9281 5.0756 21.6792 4.65756L21.048 3.59911C20.7101 3.02986 20.1767 2.62961 19.5366 2.46061C18.8965 2.30051 18.2297 2.38945 17.6696 2.72745C16.496 3.42122 16.1137 4.94218 16.8072 6.11626L18.1496 8.39327L14.5667 9.58513C14.9046 9.04257 15.1091 8.41105 15.1091 7.72618C15.1091 5.97395 13.8377 4.52414 12.1663 4.23062C12.3441 3.95489 12.4419 3.63469 12.4419 3.27891C12.4419 2.30051 11.6417 1.5 10.6638 1.5C9.68582 1.5 8.88567 2.30051 8.88567 3.27891C8.88567 3.88374 9.18795 4.40851 9.64137 4.72872C8.65452 5.36023 7.99662 6.46315 7.99662 7.72618C7.99662 8.74015 8.42336 9.6385 9.09905 10.2878L4.77823 8.12643L5.70285 7.2014C6.39631 6.50762 6.39631 5.37802 5.70285 4.68424C5.00939 3.99047 3.88028 3.99047 3.18682 4.68424L0.51965 7.3526C0.119574 7.75286 -0.0671277 8.331 0.021778 8.89136C0.110684 9.45172 0.466306 9.94091 0.981959 10.1989L7.24981 13.3386L7.55209 13.9524H4.44039C3.81805 13.9524 3.24016 14.2814 2.91121 14.8151C2.59115 15.3488 2.57337 16.0159 2.86676 16.5673L4.42261 19.8316L3.65802 20.0896C2.66228 20.4187 2.19108 21.5572 2.66228 22.5H7.99662L8.88567 19.8316L7.40984 17.5102H11.0461L18.612 22.2243C19.4477 22.7402 20.5412 22.4911 21.0569 21.655C21.5725 20.8189 21.3236 19.7249 20.4879 19.2001L14.6379 15.5534L15.6781 12.9651L20.0078 11.5241L22.346 15.4733C22.5149 15.7579 22.8083 15.9091 23.1106 15.9091C23.2617 15.9091 23.4217 15.8647 23.564 15.7846C23.9907 15.5356 24.1241 14.993 23.8752 14.5661H23.8574ZM11.5351 14.8418C11.5351 14.8418 10.646 10.9282 10.646 9.94981C10.646 8.97141 11.4462 8.1709 12.4241 8.1709C13.4021 8.1709 14.2022 8.97141 14.2022 9.94981C14.2022 12.3424 11.5351 14.8418 11.5351 14.8418Z" fill="white"/></svg>