<svg width="24" height="24" viewBox="0 0 24 24" fill="none" xmlns="http://www.w3.org/2000/svg"><path fill-rule="evenodd" clip-rule="evenodd" d="M12.8665 1.71429L13.7415 6L18.1165 9.42857L21.6165 4.28571V6.85714L18.9735 16.2941H18.9564L16.3229 17.1772L11.9829 24L7.64209 17.1772L5.00854 16.2941L2.36646 6.85714V4.28571L5.86646 9.42857L10.2415 6L11.1165 1.71429L11.9915 0L12.8665 1.71429ZM12 13.7143L7.625 11.1429L6.75 13.7143L11.125 17.1429L12 18.8571L12.875 17.1429L17.25 13.7143L16.375 11.1429L12 13.7143Z" fill="white"/><path d="M3.33716 16.7486L3.5824 17.6233L4.4574 17.9146L6.49622 18.6002L8.67517 22.0204L7.55493 23.1177L1.5 19.7143V15.4286L2.71594 14.5463L3.33716 16.7486Z" fill="white"/><path d="M22.5 15.4286V19.7143L16.4451 23.1177L15.3248 22.0204L17.5038 18.6002L19.5426 17.9146L20.4176 17.6233L20.6628 16.7486L21.2841 14.5463L22.5 15.4286Z" fill="white"/></svg>