<svg width="24" height="24" viewBox="0 0 24 24" fill="none" xmlns="http://www.w3.org/2000/svg"><path d="M1.72708 10.4C1.72708 10.4 9.43908 13.6426 9.43908 17.9518C9.43899 21.6215 6.87314 22.993 6.86005 23H6.85168C6.85168 17.2144 3.5765 15.1217 2.75886 14.6894L2.5756 14.6C4.91489 18.4892 5.14627 23 5.14627 23C-3.8146 22.1674 1.62918 10.6053 1.72541 10.4025C1.72142 10.4008 1.71871 10.4 1.71871 10.4H1.72708Z" fill="white"/><path d="M19.7134 9.56C19.6363 12.1976 22.6266 13.1133 23.5778 15.7173C24.666 18.6656 23.6464 22.2439 20.5703 23C21.3328 22.0424 21.5042 19.9424 20.5703 18.8L18.8565 21.32C18.8565 21.32 17.4598 20.6984 17.9996 17.96C17.9996 17.96 15.2661 19.7576 17.1427 23C12.0014 21.32 13.1068 16.406 17.1427 13.76C17.1427 13.76 17.1427 16.8176 18.8565 16.28C20.5528 15.7423 18.5821 13.5837 18.582 11.6182C18.582 10.1062 19.7134 9.56 19.7134 9.56Z" fill="white"/><path d="M12.0014 7.88L17.1427 7.86359L11.1445 17.12V11.2482H6.00316L12.0014 2V7.88Z" fill="white"/></svg>