<svg width="24" height="24" viewBox="0 0 24 24" fill="none" xmlns="http://www.w3.org/2000/svg"><g clip-path="url(#clip0_5513_86)"><path d="M18.8571 6.85714H17.1429V5.14286C17.1429 2.30571 14.8371 0 12 0C9.16286 0 6.85714 2.30571 6.85714 5.14286V6.85714H5.14286C2.30571 6.85714 0 9.16286 0 12C0 14.8371 2.30571 17.1429 5.14286 17.1429H6.91714C6.47143 21.12 8.54571 24 12 24C15.4543 24 17.52 21.12 17.0829 17.1429H18.8571C21.6943 17.1429 24 14.8371 24 12C24 9.16286 21.6943 6.85714 18.8571 6.85714ZM12 19.7143C9.92571 19.7143 7.55143 16.98 12 11.1429C16.4486 16.98 14.0743 19.7143 12 19.7143ZM17.1429 14.5714H16.4743C15.7114 12.3943 14.2714 10.0371 12 7.71429C9.72857 10.0371 8.28 12.3943 7.52571 14.5714H6.85714C5.44286 14.5714 4.28571 13.4143 4.28571 12C4.28571 10.5857 5.44286 9.42857 6.85714 9.42857H9.42857V6.85714C9.42857 5.44286 10.5857 4.28571 12 4.28571C13.4143 4.28571 14.5714 5.44286 14.5714 6.85714V9.42857H17.1429C18.5571 9.42857 19.7143 10.5857 19.7143 12C19.7143 13.4143 18.5571 14.5714 17.1429 14.5714Z" fill="white"/></g><defs><clipPath id="clip0_5513_86"><rect width="24" height="24" fill="white"/></clipPath></defs></svg>