<svg width="24" height="24" viewBox="0 0 24 24" fill="none" xmlns="http://www.w3.org/2000/svg"><path d="M1.71429 18.6667C2.66106 18.6667 3.42857 19.4129 3.42857 20.3333C3.42857 21.2538 2.66106 22 1.71429 22C0.767512 22 0 21.2538 0 20.3333C0 19.4129 0.767512 18.6667 1.71429 18.6667Z" fill="white"/><path fill-rule="evenodd" clip-rule="evenodd" d="M9.02595 2C4.31171 8.13327 8.59694 16.2414 13.8683 14.2249C16.0111 13.4082 15.9341 9.50015 13.7143 9.5C11.8886 9.5 12 12 12 12C9.61714 10.2833 12.0257 6.16667 15.4286 6.16667C18.6514 6.16674 21.4286 8.85005 21.4286 12.8333C21.4286 18.175 16.9881 22 11.9824 22C1.65424 21.9997 2.57143 10.3333 2.57143 10.3333C2.57397 10.343 3.18453 12.6512 5.39983 13.1751C2.74269 8.6668 5.20309 3.66667 9.02595 2ZM17.1429 10.3333C18.6171 16.2749 11.9743 19.7416 6.85714 17C12.1114 23.7665 22.037 15.2 17.1429 10.3333Z" fill="white"/><path d="M22.2857 18.6667C23.2325 18.6667 24 19.4129 24 20.3333C24 21.2538 23.2325 22 22.2857 22C21.3389 22 20.5714 21.2538 20.5714 20.3333C20.5714 19.4129 21.3389 18.6667 22.2857 18.6667Z" fill="white"/><path d="M12.1749 2.00895C12.2328 2.01465 12.2897 2.02303 12.3457 2.03418C12.4572 2.05637 12.5647 2.08891 12.6671 2.13102C12.7184 2.15209 12.7684 2.17537 12.817 2.20101C12.9143 2.2524 13.0059 2.31279 13.0907 2.38086C13.2599 2.51673 13.402 2.6835 13.5075 2.8724C13.5603 2.96681 13.6039 3.06674 13.6373 3.17106C13.6707 3.27551 13.6934 3.38444 13.7051 3.49658C13.7109 3.55252 13.7143 3.60923 13.7143 3.66667C13.7143 3.7241 13.7109 3.78081 13.7051 3.83675C13.6934 3.94889 13.6707 4.05782 13.6373 4.16227C13.6039 4.26659 13.5603 4.36652 13.5075 4.46094C13.402 4.64983 13.2599 4.81661 13.0907 4.95247C13.0059 5.02054 12.9143 5.08093 12.817 5.13232C12.7684 5.15796 12.7184 5.18124 12.6671 5.20231C12.5647 5.24443 12.4572 5.27696 12.3457 5.29915C12.234 5.32139 12.1184 5.33333 12 5.33333C11.9409 5.33333 11.8826 5.33005 11.8251 5.32438C11.1909 5.2619 10.6591 4.86375 10.4205 4.31527C10.3554 4.16564 10.3116 4.00493 10.2941 3.83675C10.2883 3.78084 10.2857 3.72407 10.2857 3.66667C10.2857 2.74619 11.0532 2 12 2C12.0591 2 12.1174 2.00328 12.1749 2.00895Z" fill="white"/></svg>