<svg width="24" height="24" viewBox="0 0 24 24" fill="none" xmlns="http://www.w3.org/2000/svg"><g clip-path="url(#clip0_5513_61)"><path d="M23.5 11.5556L20.8461 14.2222V5.33333L16.4231 11.5556L12 0L7.57693 11.5556L3.15385 5.33333V14.2222L0.50001 11.5556C0.50001 11.5556 0.473471 16.8889 3.15385 19.6178V17.7778C3.15385 16.2578 4.68424 14.9067 7.01077 14.1067C6.25885 15.1378 5.8077 16.4 5.8077 17.7778C5.8077 21.2089 8.58539 24 12 24C15.4146 24 18.1923 21.2089 18.1923 17.7778C18.1923 16.4089 17.7411 15.1378 16.9892 14.1067C19.3158 14.9067 20.8461 16.2489 20.8461 17.7778V19.6178C23.5265 16.8889 23.5 11.5556 23.5 11.5556ZM12 20.4444C10.5315 20.4444 9.34616 19.2533 9.34616 17.7778C9.34616 16.3022 10.5315 15.1111 12 15.1111C13.4685 15.1111 14.6538 16.3022 14.6538 17.7778C14.6538 19.2533 13.4685 20.4444 12 20.4444Z" fill="white"/></g><defs><clipPath id="clip0_5513_61"><rect width="24" height="24" fill="white"/></clipPath></defs></svg>