<svg width="24" height="24" viewBox="0 0 24 24" fill="none" xmlns="http://www.w3.org/2000/svg"><path d="M18.8462 10.2806C20.7066 8.63339 20.9192 4 20.9192 4C20.9192 4 17.7012 4.89587 15.5231 8.1499L16.2019 9.49608C16.2019 9.49608 17.4521 9.56718 18.8462 10.2806Z" fill="white"/><path d="M4.93896 14.7362C4.45901 14.0086 4.16418 13.281 3.99276 12.7928C3.88306 12.4681 3.82135 12.2571 3.81678 12.2287L3.63623 11.5248L3.54481 11.2854C1.47643 10.9062 0 10.956 0 10.956C0 10.956 1.85582 14.5276 5.89201 17.2081C5.94229 16.8336 6.01771 16.4378 6.12285 16.0255C6.02229 15.9496 5.92401 15.8714 5.83259 15.7861C5.47148 15.4614 5.18122 15.0964 4.94124 14.7385L4.93896 14.7362Z" fill="white"/><path d="M7.76384 9.49608C7.76384 9.49608 6.51367 9.57192 5.11952 10.2806C3.26369 8.63339 3.04657 4 3.04657 4C3.04657 4 6.26455 4.8935 8.44263 8.1499L7.76384 9.49608Z" fill="white"/><path d="M20.4529 11.2855L20.3615 11.5248L20.1809 12.2287C20.1764 12.2572 20.1169 12.4681 20.0049 12.7928C19.8335 13.2763 19.5387 14.0086 19.0588 14.7362C18.8188 15.1012 18.5285 15.4638 18.1674 15.7838C18.076 15.8643 17.9777 15.9473 17.8772 16.0231C17.9823 16.4403 18.0577 16.8313 18.108 17.2058C22.1419 14.5205 24 10.9537 24 10.9537C24 10.9537 22.5281 10.9063 20.4552 11.2831L20.4529 11.2855Z" fill="white"/><path d="M14.9357 10.764C17.6143 10.764 18.8645 11.923 18.8645 11.923C18.8645 11.923 18.1126 14.8452 16.2887 15.4377C17.1847 17.9452 16.755 20 16.755 20C16.755 20 14.0032 19.7037 11.9989 17.9073C9.99448 19.7037 7.24274 20 7.24274 20C7.24274 20 6.81307 17.9405 7.70898 15.4377C5.88973 14.8381 5.1378 11.923 5.1378 11.923C5.1378 11.923 6.38797 10.764 9.07114 10.764C9.74993 8.14516 12.0034 6.83928 12.0034 6.83928C12.0034 6.83928 14.2569 8.14516 14.9357 10.764Z" fill="white"/></svg>