<svg width="24" height="24" viewBox="0 0 24 24" fill="none" xmlns="http://www.w3.org/2000/svg"><path d="M15.3339 8.36602L15.3151 8.32837L12.5 0L9.68485 8.32837L9.66462 8.36904L7.49479 6.18641V13.8799C7.49479 14.377 7.61172 14.8221 7.85231 15.2423C8.14237 15.7439 8.61455 16.2591 9.30036 16.8149C9.55893 17.0205 10.7282 17.7549 12.4977 18.7942C14.2673 17.7549 15.4388 17.0205 15.6974 16.8149C16.3809 16.2591 16.8554 15.7462 17.1432 15.2446C17.3838 14.8266 17.5007 14.3815 17.5007 13.8821V6.18641L15.3339 8.36602Z" fill="white"/><path d="M19.7537 13.8799V3.92468H19.7515L22 1.66296V13.8799C22 15.1745 21.6762 16.3947 21.0376 17.504C20.4688 18.4937 19.6458 19.4178 18.5238 20.3284C17.431 21.2118 12.5 24 12.5 24C12.5 24 7.56674 21.2141 6.47622 20.3284C5.35419 19.4178 4.53349 18.4937 3.96237 17.504C3.32379 16.3947 3 15.1745 3 13.8799V1.66296L5.25077 3.92468V13.8799C5.25077 14.7724 5.47337 15.6106 5.91184 16.3721C6.3413 17.1177 6.98887 17.8385 7.89278 18.5705C8.43018 19.0089 10.636 20.3261 12.5023 21.4016C14.3685 20.3261 16.5721 19.0089 17.1117 18.5705C18.0156 17.8362 18.6632 17.1177 19.0927 16.3721C19.5311 15.6129 19.7537 14.7724 19.7537 13.8799Z" fill="white"/></svg>