<svg width="24" height="24" viewBox="0 0 24 24" fill="none" xmlns="http://www.w3.org/2000/svg"><g clip-path="url(#clip0_5513_46)"><path d="M12.4086 4.9947C15.2882 3.35836 21.9303 5.07181 23.2929 16.1235C24.3728 13.1593 24.3471 8.41303 22.2902 5.54301C19.4106 1.5164 14.9711 0.205614 10.9517 2.49307C8.49197 3.88953 7.77207 6.55394 8.44912 8.71288H4.93529L5.94659 12.3454C7.46353 10.2807 10.1203 12.2597 9.03191 14.1017C8.26915 15.4039 6.44367 15.3782 5.5095 14.847C2.62987 13.2107 0.812955 6.69102 9.85466 0C6.70935 0.556871 2.55273 2.9557 1.05292 6.15128C-1.04681 10.6234 0.0159138 15.0612 4.04397 17.3487C6.50366 18.7451 9.21188 18.034 10.7631 16.372L12.52 19.3705L15.2025 16.689C12.6314 16.432 13.0428 13.1764 15.2025 13.1764C16.7281 13.1764 17.6194 14.7442 17.6194 15.8151C17.6194 19.0964 12.7943 23.9026 2.3899 19.5333C4.45535 21.9407 8.63767 24.2881 12.1944 23.9711C17.1737 23.5256 20.5504 20.3986 20.5504 15.8237C20.5504 13.0222 18.5707 11.0774 16.3338 10.5805L18.0908 7.58201L14.3969 6.63105C15.4511 8.95277 12.3915 10.2293 11.3116 8.38733C10.5489 7.08511 11.483 5.54301 12.4172 5.01184L12.4086 4.9947Z" fill="white"/></g><defs><clipPath id="clip0_5513_46"><rect width="24" height="24" fill="white"/></clipPath></defs></svg>