<svg width="24" height="24" viewBox="0 0 24 24" fill="none" xmlns="http://www.w3.org/2000/svg"><path d="M20.5714 4.01899C15.2057 0.660336 8.79429 0.660336 3.42857 4.01899C3.42857 4.01899 3.85714 7.37765 0 7.37765V16.6224C3.85714 16.6224 4.28571 19.9726 4.28571 19.9726L12 22.5L19.7143 19.9726C19.7143 19.9726 20.1429 16.6224 24 16.6224V7.37765C20.1429 7.37765 20.5714 4.01899 20.5714 4.01899ZM18 14.9346L18.8571 16.614C17.1429 16.614 12.8571 16.614 12 13.2553C11.1429 16.614 6.85714 16.614 5.14286 16.614L6 14.9346C3.29143 14.9346 2.57143 13.4064 2.57143 11.8111C2.57143 10.0562 3.42857 8.21731 3.42857 8.21731C3.42857 8.21731 4.39714 11.2065 6.26571 9.22491C8.19429 7.17613 10.1057 6.45402 12 9.05698C13.8943 6.45402 15.8057 7.17613 17.7343 9.22491C19.6029 11.2149 20.5714 8.21731 20.5714 8.21731C20.5714 8.21731 21.4286 10.0562 21.4286 11.8111C21.4286 13.4064 20.7086 14.9346 18 14.9346Z" fill="white"/></svg>