<svg width="24" height="24" viewBox="0 0 24 24" fill="none" xmlns="http://www.w3.org/2000/svg"><path d="M17.0226 15.8441L13.0096 18.5771L11.552 17.487V17.4969C7.62041 22.8471 14.2021 23.7307 14.2594 23.7383C10.5911 24.6614 2.56721 23.433 8.6261 15.3176L7.15873 14.2283L8.49077 9.49187L17.0226 15.8441Z" fill="white"/><path d="M23 20.3038L21.3964 22.5381L16.1708 18.651L20.8622 15.4474L23 20.3038Z" fill="white"/><path fill-rule="evenodd" clip-rule="evenodd" d="M21.859 12.5476L21.8502 12.5566L18.6253 14.7549L9.02501 7.59927L10.0846 3.82218L21.8404 0L21.859 12.5476ZM18.0999 5.22608C17.2938 4.62596 16.3249 4.41382 15.4102 4.56155C14.4954 4.70005 13.6346 5.20772 13.0459 6.02946L14.5044 7.11868C14.7942 6.71255 15.2107 6.45415 15.6905 6.38021C16.1705 6.30637 16.6509 6.42595 17.0403 6.71203C17.4388 7.00749 17.6922 7.43271 17.7647 7.92207H17.7558C17.8283 8.4114 17.7193 8.90101 17.4295 9.29802L18.888 10.3872C19.4767 9.55625 19.6848 8.56788 19.5399 7.63534C19.4039 6.70297 18.9059 5.82613 18.0999 5.22608Z" fill="white"/><path d="M7.69296 5.64175L6.13537 11.1726L1 7.38648L2.52133 5.05115L7.69296 5.64175Z" fill="white"/></svg>