<svg width="24" height="24" viewBox="0 0 24 24" fill="none" xmlns="http://www.w3.org/2000/svg"><path d="M6.00199 1C11.5714 2.55037 11.1429 8.66667 11.1429 8.66667C5.83939 8.66673 4.63975 12.4233 6.00199 13.7778C7.36432 15.1407 9.38639 12.4319 9.42929 12.0741C12.7035 17.9216 10.2803 23.9727 10.2694 24C10.2694 24 7.75848 19.7064 5.14516 18.8631C5.15391 18.8564 7.07058 17.3957 6.00199 16.3333C4.93096 15.2686 3.43151 16.4782 3.43151 17.1852C-1.70934 13.3604 0.0475269 8.78562 1.55553 7.08192C1.68406 7.48229 2.36958 10.0809 3.552 9.93613C6.72191 9.54385 7.04727 3.58101 6.00199 1Z" fill="white"/><path d="M17.9975 1C16.9522 3.58113 17.2781 9.54428 20.4484 9.93613C21.6307 10.0806 22.3163 7.48227 22.4448 7.08192C23.9529 8.79415 25.709 13.3604 20.568 17.1852C20.568 16.4781 19.0686 15.2685 17.9975 16.3333C16.9328 17.392 18.8325 18.8464 18.8544 18.8631C16.2495 19.7037 13.7472 23.9723 13.731 24C13.731 24 11.2886 17.9348 14.5702 12.0741C14.6131 12.4318 16.6352 15.1406 17.9975 13.7778C19.3599 12.4233 18.1603 8.66667 12.8566 8.66667C12.856 8.6584 12.4321 2.54937 17.9975 1Z" fill="white"/></svg>